<svg width="74" height="39" viewBox="0 0 74 39" fill="none" xmlns="http://www.w3.org/2000/svg">
<path d="M25.069 9.29267L25.0531 9.3476L21.4413 21.7332C21.3886 21.6458 21.3394 21.5323 21.2968 21.3907L21.2961 21.3878L18.6829 12.5779V12.5771C18.5247 12.0496 18.3194 11.5792 18.0622 11.1687C17.8692 10.8608 17.6466 10.587 17.3944 10.3506C17.0165 9.99582 16.5728 9.72844 16.0741 9.55283C15.5755 9.37723 15.0248 9.29267 14.4258 9.29267H12.8142V10.871H13.2298C13.3649 10.871 13.4675 10.8876 13.5456 10.9121C13.6048 10.9309 13.6496 10.9541 13.6915 10.983C13.7537 11.0271 13.8079 11.0849 13.8657 11.1795C13.9221 11.2728 13.977 11.4028 14.0261 11.5683L14.8131 14.24L12.6263 21.7332C12.5736 21.6458 12.5245 21.533 12.4818 21.3914L9.86725 12.5779V12.5771C9.70898 12.0496 9.50375 11.5792 9.24648 11.1687C9.05354 10.8608 8.83096 10.587 8.57875 10.3506C8.2008 9.99582 7.75709 9.72844 7.25846 9.55283C6.75982 9.37723 6.20916 9.29267 5.61008 9.29267H4V10.871H4.41553C4.55066 10.871 4.65328 10.8876 4.73133 10.9121C4.79059 10.9309 4.83539 10.9541 4.8773 10.983C4.93945 11.0271 4.99438 11.0849 5.05147 11.1795C5.10783 11.2728 5.16275 11.4028 5.21189 11.5683V11.569V11.5698L7.82574 20.3826V20.3833C7.984 20.9115 8.19141 21.3827 8.45156 21.7932C8.64668 22.101 8.87143 22.3749 9.1258 22.6105C9.50736 22.9646 9.95469 23.232 10.4555 23.4069C10.9563 23.5825 11.5091 23.6663 12.1082 23.6663H13.6149L15.5972 16.8582L16.6393 20.3811L16.64 20.3826C16.7982 20.9108 17.0056 21.382 17.2658 21.7925C17.4609 22.1003 17.6857 22.3742 17.94 22.6098C18.3216 22.9639 18.7689 23.2313 19.2697 23.4062C19.7705 23.5818 20.3234 23.6656 20.9224 23.6656H22.4299L26.6054 9.28906H25.069V9.29267Z" fill="#101828"/>
<path d="M40.2202 22.0912H40.2187C40.085 22.0912 39.9817 22.0746 39.9102 22.0507C39.8552 22.0327 39.8191 22.0124 39.7902 21.99C39.7685 21.9734 39.7519 21.9561 39.7353 21.9329C39.7107 21.899 39.6883 21.8535 39.6695 21.7841C39.6514 21.7154 39.6399 21.6244 39.6399 21.5116V14.3646C39.6399 13.6318 39.5293 12.9438 39.2894 12.3216C39.1095 11.8548 38.8551 11.4255 38.5248 11.049C38.277 10.7665 37.9872 10.5135 37.6555 10.2953C37.1583 9.96721 36.5693 9.71645 35.8907 9.54807C35.2114 9.37969 34.4404 9.29297 33.5725 9.29297C32.4148 9.29297 31.174 9.49965 29.9946 9.88627C28.8152 10.2736 27.6958 10.8402 26.7874 11.5766L26.4716 11.8331L28.4698 14.4021L28.7899 13.9223C29.264 13.2105 29.9671 12.4004 30.7938 11.784C31.2072 11.4754 31.6509 11.2138 32.1098 11.0317C32.5694 10.8496 33.0428 10.7462 33.524 10.7455C33.6845 10.7455 33.8254 10.7629 33.9504 10.7932C34.1701 10.8474 34.3406 10.9392 34.4931 11.0729C34.6066 11.1733 34.7085 11.2991 34.801 11.4552C34.9383 11.6879 35.051 11.9878 35.1341 12.344C35.1883 12.576 35.2302 12.8325 35.2606 13.1086C35.0965 13.1043 34.9347 13.1014 34.775 13.1014H34.7742H34.7735C33.2588 13.1014 31.9364 13.2972 30.8018 13.639C29.0999 14.1521 27.8194 14.9955 26.9623 15.9949C26.106 16.9936 25.6738 18.1491 25.6738 19.2649V19.2656V19.2663V19.2671C25.6738 19.8495 25.7916 20.4204 26.0258 20.9465C26.3762 21.7371 26.9891 22.4251 27.8317 22.9071C28.6736 23.3891 29.7409 23.6673 31.007 23.6673H31.0078H31.0106H31.0128C32.2608 23.6673 33.3318 23.426 34.2048 23.0957C34.8436 22.8536 35.3755 22.5653 35.7982 22.2871C35.8662 22.4048 35.9413 22.5169 36.0259 22.6209C36.1719 22.8009 36.3417 22.9584 36.5325 23.0921C36.8186 23.2923 37.1503 23.4368 37.5174 23.53C37.8853 23.624 38.2885 23.6673 38.7293 23.6673H40.6386V22.089H40.562H40.2202V22.0912ZM30.2013 19.9052C30.0488 19.5569 29.9693 19.1652 29.9693 18.7562V18.7547C29.9693 17.8095 30.3935 16.7703 31.2831 15.9653C31.7282 15.562 32.2905 15.2166 32.9799 14.9702C33.6411 14.7338 34.4201 14.59 35.3227 14.5785V20.2665C35.3227 20.4732 35.3343 20.6791 35.3574 20.8757C34.6225 21.2226 33.7849 21.4444 32.8751 21.4444C32.3736 21.4444 31.945 21.3613 31.5844 21.2197C31.3134 21.1135 31.08 20.974 30.8798 20.8092C30.5792 20.5606 30.3545 20.2535 30.2013 19.9052Z" fill="#101828"/>
<path d="M66.5984 19.2116C66.5926 19.5686 66.5493 19.9307 66.464 20.266C66.4004 20.5175 66.3137 20.7545 66.2046 20.9648C66.1229 21.1223 66.029 21.2654 65.9227 21.3897C65.763 21.5769 65.5795 21.7236 65.3605 21.8262C65.1415 21.9288 64.8864 21.9895 64.5728 21.9895C64.2426 21.9895 63.8863 21.8941 63.5141 21.6961C63.1954 21.5263 62.8681 21.2799 62.5458 20.9634C63.0784 19.0396 64.0648 17.4924 65.2738 16.3412C66.529 15.1453 68.0249 14.3792 69.489 14.0721L69.9725 13.9709L69.7897 13.512C69.5317 12.8638 69.187 12.2741 68.7628 11.7546C68.1268 10.9755 67.3138 10.3562 66.3614 9.93562C65.4096 9.51432 64.3206 9.29102 63.1304 9.29102C63.1304 9.29102 63.1297 9.29102 63.1289 9.29102C62.0681 9.29102 61.0867 9.46879 60.2101 9.80627C59.5525 10.0592 58.9549 10.4032 58.4288 10.8267C57.6396 11.4626 57.0153 12.2792 56.5911 13.2353C56.1662 14.1913 55.9414 15.2854 55.9414 16.4786C55.9414 17.5394 56.1192 18.5215 56.4567 19.3981C56.7096 20.0557 57.0536 20.6533 57.4771 21.1794C58.113 21.9686 58.9296 22.5929 59.8857 23.0171C60.8403 23.4413 61.933 23.6661 63.1246 23.6661H63.1253H63.1297H63.1311C64.4969 23.6661 65.7348 23.3727 66.7834 22.822C67.8327 22.2714 68.6898 21.462 69.2881 20.4495L69.51 20.0752L66.6093 18.5309L66.5984 19.2116ZM60.609 11.3419C60.7442 11.2386 60.893 11.1555 61.0614 11.0919L61.0643 11.0904L61.0658 11.0897L61.0679 11.089C61.2616 11.0109 61.4892 10.969 61.6822 10.969H61.6836H61.6844H61.6858C61.9279 10.969 62.1779 11.0182 62.4374 11.1186C62.8254 11.2689 63.233 11.5392 63.6377 11.9251C63.9737 12.2452 64.3062 12.6456 64.6256 13.116C64.1183 13.572 63.6774 14.0772 63.2973 14.6112C62.6238 15.5579 62.1404 16.5935 61.8065 17.6138C61.6063 18.2259 61.4611 18.8322 61.3621 19.4125C61.034 18.8568 60.7312 18.2202 60.4558 17.5011V17.5004C59.9319 16.1382 59.6804 14.8858 59.6804 13.8604V13.8582V13.8575C59.6804 13.4846 59.7137 13.1428 59.7765 12.8364C59.8712 12.3768 60.0324 11.9995 60.247 11.7112C60.3532 11.5674 60.4739 11.4445 60.609 11.3419Z" fill="#101828"/>
<path d="M55.9881 25.9618C55.8595 25.5838 55.6831 25.2283 55.4591 24.9081C55.1238 24.4276 54.6801 24.0243 54.1417 23.7454C53.6041 23.4657 52.9739 23.3111 52.2744 23.3111C52.2744 23.3111 52.2737 23.3111 52.2722 23.3111C51.7071 23.3111 51.1557 23.384 50.6108 23.4895C49.7935 23.6485 48.9892 23.8812 48.1646 24.0698C47.3401 24.2592 46.4967 24.4059 45.5992 24.4059H45.5978C45.2942 24.4059 45.0312 24.377 44.813 24.3264C44.6496 24.2881 44.5109 24.2382 44.3989 24.1804C44.315 24.137 44.2457 24.0901 44.1886 24.0417C44.1033 23.9672 44.0469 23.8913 44.0079 23.8053C43.9689 23.7194 43.9472 23.6225 43.9472 23.5018C43.9472 23.431 43.953 23.3674 43.966 23.2988C43.9855 23.1962 44.0216 23.082 44.091 22.9331C44.1206 22.8702 44.1561 22.8001 44.1987 22.7243C44.68 22.9916 45.1981 23.2092 45.7531 23.3667C46.4498 23.564 47.2021 23.668 48.0071 23.6688H48.0078H48.0143C49.0752 23.6688 50.0573 23.491 50.9338 23.1535C51.5915 22.9006 52.1891 22.5566 52.7152 22.1331C53.5043 21.4972 54.1287 20.6806 54.5529 19.7245C54.9778 18.7684 55.2026 17.6743 55.2026 16.4812V16.4791C55.2026 15.205 54.9482 14.0408 54.4676 13.0371C54.0456 12.154 53.4465 11.3973 52.7015 10.8019C52.2122 10.4666 50.9266 9.80678 50.9266 9.80678C50.0508 9.47363 49.0737 9.29297 48.015 9.29297H48.0136C46.9527 9.29297 45.9706 9.47074 45.0941 9.80822C44.4364 10.0612 43.8388 10.4051 43.3127 10.8286C42.5236 11.4646 41.8992 12.2812 41.475 13.2372C41.0508 14.1933 40.8261 15.2867 40.8253 16.4798V16.4805V16.4812V16.482C40.8253 17.6396 41.0335 18.6983 41.4316 19.6291C41.7727 20.4284 42.2547 21.1322 42.856 21.7198C42.5163 22.1194 42.223 22.4829 41.9939 22.8493C41.8508 23.0784 41.733 23.3111 41.6506 23.5553C41.5682 23.7988 41.522 24.0539 41.522 24.3192V24.3206C41.522 24.3423 41.522 24.3647 41.5227 24.3864V24.3878C41.5299 24.6169 41.5733 24.8337 41.6499 25.0339C41.7641 25.3338 41.9534 25.5881 42.1846 25.7948C42.2114 25.8187 42.2388 25.8418 42.267 25.8649C41.6289 26.2132 41.0971 26.6794 40.6967 27.2185C40.1482 27.9563 39.8425 28.8314 39.8418 29.7225V29.7239V29.7246V29.7261C39.8418 30.3302 39.9834 30.9401 40.2812 31.5096C40.5045 31.9367 40.8145 32.3406 41.2127 32.7027C41.8103 33.2461 42.6045 33.6963 43.6039 34.01C44.6034 34.3236 45.8095 34.5014 47.2425 34.5014C48.7847 34.5014 50.1187 34.2723 51.254 33.8748C52.9573 33.2794 54.2104 32.3023 55.0313 31.1743C55.853 30.0462 56.2454 28.77 56.2454 27.574C56.2461 27.0103 56.1594 26.4654 55.9881 25.9618ZM45.339 15.4608L45.3398 15.4601C45.6187 14.7389 45.9309 14.0914 46.2655 13.5292C46.7663 12.6858 47.317 12.0333 47.864 11.6047C48.1372 11.3901 48.4089 11.2304 48.6719 11.1256C48.935 11.0208 49.1886 10.9703 49.4343 10.9703C49.675 10.9703 49.9127 11.0201 50.1339 11.1148C50.2921 11.182 50.4417 11.2723 50.5776 11.3814L50.5812 11.3843L50.5848 11.3865C50.7395 11.4833 50.863 11.6098 50.962 11.7449C51.1109 11.9473 51.2034 12.1713 51.2583 12.3433C51.2858 12.4293 51.3038 12.503 51.3147 12.5543C51.3205 12.5803 51.3241 12.6006 51.3262 12.6136C51.3277 12.6201 51.3284 12.6259 51.3291 12.6288L51.3299 12.6324V12.6331L51.3306 12.6374L51.332 12.6418C51.3508 12.7126 51.3674 12.7863 51.3826 12.8622C51.4412 13.1577 51.4715 13.4865 51.4715 13.845V13.8479C51.4715 14.874 51.2186 16.1329 50.6903 17.5009C50.4114 18.2221 50.0992 18.8689 49.7646 19.4311C49.2631 20.2745 48.7117 20.9263 48.1617 21.3555C47.8871 21.5702 47.6132 21.7299 47.3473 21.8347C47.0806 21.9395 46.8234 21.9908 46.5719 21.9908C46.2424 21.9908 45.9432 21.9098 45.6794 21.7588C45.4727 21.6403 45.2877 21.4777 45.1316 21.2724L45.1273 21.2674L45.1222 21.263C45.0095 21.1583 44.9177 21.0137 44.8447 20.8555C44.7356 20.6177 44.6706 20.3503 44.633 20.1422C44.6142 20.0381 44.6027 19.95 44.5962 19.8871C44.5925 19.856 44.5904 19.8315 44.5889 19.8141C44.5882 19.8054 44.5875 19.7997 44.5875 19.7953V19.7903V19.7888V19.7867V19.7845C44.5622 19.5778 44.5485 19.3588 44.5485 19.1276V19.1247V19.1225C44.547 18.0956 44.8043 16.8375 45.339 15.4608ZM52.0807 29.4782C52.0807 29.8446 51.9803 30.2442 51.7757 30.6388C51.4686 31.2306 50.9273 31.8088 50.1671 32.2366C49.4069 32.6651 48.4277 32.9455 47.2425 32.9462C46.5618 32.9462 46.0024 32.84 45.5479 32.6622C45.2068 32.5293 44.9235 32.3565 44.6872 32.1542C44.3331 31.8507 44.0816 31.4785 43.9147 31.0601C43.7485 30.6424 43.669 30.1785 43.669 29.7066V29.7058V29.7037V29.703C43.669 29.1068 43.7962 28.499 44.0187 27.9679C44.13 27.7019 44.2645 27.4548 44.4169 27.238C44.5297 27.0768 44.6532 26.933 44.7826 26.808C45.5363 26.9345 46.3508 27.0161 47.158 27.1028C47.8178 27.1737 48.4718 27.2488 49.0759 27.3529C49.529 27.4309 49.9539 27.5256 50.3297 27.6441C50.6123 27.733 50.8666 27.8356 51.0856 27.9534C51.2504 28.0416 51.3949 28.137 51.5178 28.2403C51.7028 28.3964 51.8386 28.5662 51.9326 28.7635C52.0265 28.9615 52.08 29.1906 52.0807 29.4768V29.4782Z" fill="#101828"/>
<path d="M50.6959 8.07145C50.8072 8.40387 50.8765 8.7334 50.9112 9.05787L53.0662 10.1917C53.4123 9.59047 53.7 9.01812 53.9218 8.46457C54.2557 7.63135 54.4407 6.83643 54.4414 6.05523V6.05307C54.4414 5.50529 54.3489 4.96619 54.1581 4.43793L54.0006 4L53.5836 4.20596L49.5996 6.16941L49.8981 6.56977C50.2702 7.06912 50.5297 7.57353 50.6959 8.07145Z" fill="#00A264"/>
</svg>
